<svg width="192" height="192" viewBox="0 0 192 192" fill="none" xmlns="http://www.w3.org/2000/svg">
<path d="M167.2 16H24.8C22.4661 16 20.2278 16.9271 18.5775 18.5775C16.9271 20.2278 16 22.4661 16 24.8V167.2C16 169.534 16.9271 171.772 18.5775 173.423C20.2278 175.073 22.4661 176 24.8 176H101.44V114H80.64V90H101.44V72C101.009 67.7741 101.508 63.505 102.902 59.4923C104.295 55.4796 106.55 51.8204 109.508 48.7713C112.465 45.7222 116.054 43.3571 120.023 41.8419C123.991 40.3267 128.243 39.698 132.48 40C138.707 39.9617 144.93 40.2822 151.12 40.96V62.56H138.4C128.32 62.56 126.4 67.36 126.4 74.32V89.76H150.4L147.28 113.76H126.4V176H167.2C168.356 176 169.5 175.772 170.568 175.33C171.635 174.888 172.605 174.24 173.423 173.423C174.24 172.605 174.888 171.635 175.33 170.568C175.772 169.5 176 168.356 176 167.2V24.8C176 23.6444 175.772 22.5001 175.33 21.4324C174.888 20.3647 174.24 19.3946 173.423 18.5775C172.605 17.7603 171.635 17.1121 170.568 16.6699C169.5 16.2276 168.356 16 167.2 16Z" fill="#979797"/>
</svg>
